<?xml version="1.0" encoding="UTF-8"?><svg id="Ebene_1" xmlns="http://www.w3.org/2000/svg" xmlns:xlink="http://www.w3.org/1999/xlink" viewBox="0 0 283.46 86.1"><defs><style>.cls-1{clip-path:url(#clippath-2);}.cls-1,.cls-2,.cls-3,.cls-4{fill:none;}.cls-5,.cls-6{fill:#fff;}.cls-6{stroke:#fff;stroke-miterlimit:22.24;stroke-width:.38px;}.cls-7{fill:#b1b3b4;}.cls-8{fill:#19171a;}.cls-3{clip-path:url(#clippath);}.cls-4{clip-path:url(#clippath-1);}</style><clipPath id="clippath"><rect class="cls-2" y="0" width="283.46" height="86.1"/></clipPath><clipPath id="clippath-1"><rect class="cls-2" y="0" width="283.46" height="86.1"/></clipPath><clipPath id="clippath-2"><rect class="cls-2" y="0" width="283.46" height="86.1"/></clipPath></defs><g class="cls-3"><path class="cls-8" d="m142.92,39.52c3.59-3.53,5.38-8.16,5.38-13.9,0-4.85-.96-8.7-2.86-11.53-1.91-2.83-4.39-4.98-7.44-6.45-3.05-1.47-6.51-2.43-10.36-2.87-3.85-.44-7.73-.66-11.62-.66h-20.72v78.1h9.62v-35.08h0v-8.6h0V12.72h13.51c2.36,0,4.71.15,7.04.44,2.33.29,4.43.9,6.3,1.82,1.87.92,3.38,2.22,4.52,3.92,1.15,1.69,1.72,3.93,1.72,6.73,0,3.24-.78,5.72-2.35,7.45-1.56,1.73-3.55,3-5.95,3.81-2.4.81-5.04,1.29-7.9,1.44-1.53.08-3.02.13-4.49.17v8.7l21.95,35.03h11.79l-23.01-35.96c6.33-.95,11.29-3.2,14.88-6.73"/><path class="cls-8" d="m226.6,43.16c0-4.78-.61-9.06-1.83-12.85-1.22-3.79-2.86-7.13-4.92-10.04-2.06-2.9-4.45-5.39-7.15-7.45-2.71-2.06-5.53-3.73-8.47-5.02-2.94-1.29-5.9-2.22-8.87-2.81-2.98-.59-5.8-.88-8.47-.88h-31.14v78.1h9.63l-.02-69.5h18.32c4.65,0,8.97.59,12.93,1.76,3.97,1.18,7.4,3,10.3,5.46,2.9,2.46,5.19,5.61,6.87,9.43,1.68,3.83,2.52,8.42,2.52,13.79s-.84,9.97-2.52,13.79c-1.68,3.83-3.97,6.97-6.87,9.43-2.9,2.47-6.34,4.28-10.3,5.46-3.97,1.18-8.28,1.76-12.93,1.76h-2.56v8.6h5.76c2.67,0,5.49-.29,8.47-.88,2.98-.59,5.93-1.53,8.87-2.81,2.94-1.29,5.76-2.96,8.47-5.02,2.71-2.06,5.09-4.54,7.15-7.45,2.06-2.9,3.7-6.25,4.92-10.04,1.22-3.79,1.83-8.07,1.83-12.85"/><path class="cls-8" d="m279.26,11.28c-2.98-3.38-6.35-5.75-10.13-7.11-3.78-1.36-7.96-2.04-12.54-2.04-3.59,0-7.02.48-10.3,1.43-3.28.96-6.22,2.37-8.82,4.25-2.6,1.88-4.66,4.21-6.18,7.01-1.53,2.8-2.29,6.07-2.29,9.82,0,3.24.51,6.01,1.55,8.33,1.03,2.32,2.44,4.3,4.24,5.96,1.79,1.65,3.91,3.05,6.35,4.19,2.44,1.14,5.11,2.15,8.01,3.03,3.59,1.18,6.71,2.21,9.39,3.09,2.67.88,4.88,1.88,6.64,2.98,1.76,1.1,3.05,2.41,3.89,3.92.84,1.51,1.26,3.48,1.26,5.9,0,2.21-.54,4.15-1.6,5.85-1.07,1.69-2.44,3.11-4.12,4.25-1.68,1.14-3.57,2.01-5.67,2.59-2.1.59-4.18.88-6.24.88-3.51,0-6.83-.73-9.96-2.21-3.13-1.47-5.57-3.64-7.33-6.51l-8.24,6.51c1.37,1.98,3.01,3.66,4.92,5.02,1.91,1.36,3.95,2.46,6.12,3.31,2.18.85,4.44,1.47,6.81,1.88,2.36.4,4.73.61,7.1.61,3.66,0,7.21-.46,10.65-1.38,3.43-.92,6.47-2.32,9.1-4.19,2.63-1.88,4.75-4.25,6.35-7.12,1.6-2.87,2.4-6.25,2.4-10.15s-.67-7.01-2-9.54c-1.34-2.54-3.13-4.65-5.38-6.34-2.25-1.69-4.85-3.09-7.78-4.19-2.94-1.1-5.97-2.13-9.1-3.09-3.2-.95-5.91-1.91-8.13-2.87-2.21-.95-3.97-1.99-5.27-3.09-1.3-1.1-2.23-2.33-2.8-3.69-.57-1.36-.86-2.92-.86-4.69,0-2.28.5-4.26,1.49-5.96.99-1.69,2.31-3.05,3.95-4.08,1.64-1.03,3.49-1.8,5.55-2.32,2.06-.51,4.16-.77,6.3-.77,2.9,0,5.68.57,8.36,1.71,2.67,1.14,4.81,2.96,6.41,5.46l7.9-6.62Z"/></g><rect class="cls-8" x="65.23" y="29.14" width="18.83" height="53.07"/><rect class="cls-8" x="35.23" y="29.14" width="18.83" height="53.07"/><g class="cls-4"><path class="cls-5" d="m74.65,3.6c-8.27,0-10.97,3.01-10.97,11.12s2.71,10.82,10.97,10.82,10.97-2.86,10.97-10.82-2.86-11.12-10.97-11.12"/><path class="cls-5" d="m44.65,3.6c-8.27,0-10.97,3.01-10.97,11.12s2.71,10.82,10.97,10.82,10.97-2.86,10.97-10.82-2.86-11.12-10.97-11.12"/></g><polygon class="cls-8" points="24.47 43.63 15.28 48.74 8.54 44.27 8.54 49.45 15.46 53.24 24.78 48.68 24.47 43.63"/><rect class="cls-8" x="2.84" y="52.97" width="21.64" height="4.5"/><g class="cls-1"><path class="cls-8" d="m16.2,33.56c2.14,0,3.56.19,4.26.58.7.38,1.06,1.13,1.06,2.22s-.36,1.84-1.07,2.24c-.71.39-2.13.59-4.25.59s-3.54-.2-4.25-.59c-.71-.39-1.07-1.14-1.07-2.24s.35-1.84,1.06-2.22c.7-.38,2.12-.58,4.27-.58m0-4.45c-2.83,0-4.98.55-6.45,1.65-1.46,1.1-2.2,2.96-2.2,5.59s.74,4.5,2.21,5.62c1.47,1.12,3.62,1.67,6.43,1.67s4.96-.56,6.43-1.67c1.47-1.12,2.21-2.99,2.21-5.62s-.73-4.49-2.2-5.59c-1.46-1.1-3.61-1.65-6.45-1.65"/><path class="cls-8" d="m12.48,22.58c-.32-.45-.6-.99-.83-1.63-.23-.64-.35-1.21-.35-1.72s.15-.88.45-1.13c.3-.24,1.18-.37,2.65-.37h10.08v-4.36h-10.56c-.34,0-.81.02-1.41.06-.81-1.18-1.21-2.29-1.21-3.32,0-.54.15-.94.46-1.2.31-.25,1.19-.38,2.63-.38h10.08v-4.42h-10.84c-1.93,0-3.44.33-4.52,1s-1.62,1.81-1.62,3.42c0,.69.13,1.42.38,2.17.25.75.5,1.34.75,1.77.24.43.58.99,1.01,1.66-1.43.71-2.14,1.92-2.14,3.63,0,.71.14,1.47.41,2.28.27.81.52,1.41.73,1.8.22.39.53.94.94,1.63v.17l-1.66.51v2.79h16.55v-4.36h-11.99Z"/><path class="cls-7" d="m14.85,63.71l.14,6.48c-.9-.02-1.61-.07-2.11-.14-.51-.07-.97-.24-1.41-.49-.43-.25-.73-.62-.9-1.1-.17-.48-.25-1.09-.25-1.83s.07-1.24.2-1.51c.09-.17.16-.32.21-.45s.16-.25.35-.35c.19-.1.31-.19.38-.25s.24-.12.53-.17c.29-.05.48-.08.56-.1.08-.02.32-.04.7-.06.39-.02.63-.03.75-.03h.84Zm8.64-2.93l-2.48.79.31.87c.56,1.69.84,3.29.84,4.81,0,.79-.21,1.42-.62,1.89-.66.71-2.03,1.07-4.11,1.07v-9.82h-2.03c-2.78,0-4.77.52-5.97,1.56-1.2,1.04-1.8,2.6-1.8,4.69,0,4.66,2.87,6.98,8.6,6.98s8.6-2.35,8.6-7.04c0-2.03-.45-3.96-1.35-5.8m.13,20.28c.78-.7,1.17-1.8,1.17-3.28,0-.84-.08-1.59-.23-2.22h-2.62l.08,1.8c0,.67-.14,1.09-.44,1.25-.29.16-1.07.24-2.32.24h-7.83v-3.32h-2.53v3.29h-3.83v2.51l3.88.65.39,2.03h2.03v-1.89h7.74c2.21,0,3.71-.35,4.49-1.06"/><path class="cls-6" d="m14.85,63.71l.14,6.48c-.9-.02-1.61-.07-2.11-.14-.51-.07-.97-.24-1.41-.49-.43-.25-.73-.62-.9-1.1-.17-.48-.25-1.09-.25-1.83s.07-1.24.2-1.51c.09-.17.16-.32.21-.45s.16-.25.35-.35c.19-.1.31-.19.38-.25s.24-.12.53-.17c.29-.05.48-.08.56-.1.08-.02.32-.04.7-.06.39-.02.63-.03.75-.03h.84Zm8.64-2.93l-2.48.79.31.87c.56,1.69.84,3.29.84,4.81,0,.79-.21,1.42-.62,1.89-.66.71-2.03,1.07-4.11,1.07v-9.82h-2.03c-2.78,0-4.77.52-5.97,1.56-1.2,1.04-1.8,2.6-1.8,4.69,0,4.66,2.87,6.98,8.6,6.98s8.6-2.35,8.6-7.04c0-2.03-.45-3.96-1.35-5.8Zm.13,20.28c.78-.7,1.17-1.8,1.17-3.28,0-.84-.08-1.59-.23-2.22h-2.62l.08,1.8c0,.67-.14,1.09-.44,1.25-.29.16-1.07.24-2.32.24h-7.83v-3.32h-2.53v3.29h-3.83v2.51l3.88.65.39,2.03h2.03v-1.89h7.74c2.21,0,3.71-.35,4.49-1.06Z"/></g></svg>